<svg xmlns="http://www.w3.org/2000/svg" width="304" height="195" version="1"><path d="M280.128 41.362v2.178h3.725V53.8h2.367V43.572h3.662v-2.24l-9.754.03zm11.964.095v12.31h1.894v-9.5l2.956 8.255 1.994-.013 3.068-8.12v9.53h1.926v-12.5h-3.536l-2.494 8.79-2.557-8.76h-3.25zM0 115.45V80.6s-.38-15.026 14.647-30.052c15.026-15.026 29.295-13.384 29.295-13.384H63.64S88.388.04 137.38.04c48.993 0 77.025 36.62 77.025 36.62h22.223s5.61-.255 12.662 3.286c7.127 3.58 13.538 7.703 20.066 17.835 6.547 10.16 7.426 17.48 7.426 22.82v38.14c0 7.95-.758 14.15-14.142 27.53-13.385 13.39-30.557 11.87-30.557 11.87h-20.456s-25.55 36.83-73.49 36.83c-47.947 0-72.477-36.57-72.477-36.57H42.93s-15.025.89-29.545-13.63C-1.135 130.228.253 115.45 0 115.45zm24.117-50.128L38.26 126.31h15.53l6.945-35.103 6.693 35.103h15.91L97.48 65.7H80.56l-4.925 33.21-6.945-33.336H53.412l-6.945 33.714-5.177-33.84-17.173-.126zm81.355 17.06v43.872h14.925V82.382h-14.925zm17.186-12.392c0 4.244-4.214 7.69-9.407 7.69-5.19 0-9.4-3.446-9.4-7.69s4.22-7.69 9.41-7.69c5.2 0 9.41 3.446 9.41 7.69zm3.618 79.51s18.634-14.14 18.634-35.187V78.855c0-5.702 2.924-13.778 11.67-22.524 8.745-8.74 16.452-10.13 21.8-10.13h55.54c9.44.14 16.775 4.09 23.518 10.41 6.247 6.57 10.312 14.79 10.312 23.79v33.92c0 6.68-1.79 16.36-10.674 24.52s-15.73 10.67-22.796 10.67H126.277zm102.577-67.07v43.87h14.926V82.43h-14.93zm17.187-12.393c0 4.244-4.215 7.69-9.407 7.69-5.193 0-9.408-3.446-9.408-7.69s4.215-7.69 9.408-7.69c5.192 0 9.407 3.446 9.407 7.69zm-79.963 55.947h16.734V107.71h31.85V94.05h-31.93V79.76h36.09V65.557h-52.83l.09 60.424z" fill-rule="evenodd"/><path d="M38.354 125.392c-.448-1.334-13.575-58.5-13.575-59.114 0-.485 1.97-.64 8.18-.64 4.5 0 8.18.173 8.18.384-.01.648 4.63 31 4.94 32.365.27 1.187.31 1.205.66.256.2-.563 1.85-8.225 3.65-17.027l3.28-16.003 7.394.14 7.4.14L71.83 82.1c1.845 8.92 3.494 16.35 3.666 16.52.413.416.49-.032 3.055-17.5l2.2-14.97h8.09c4.45 0 8.09.148 8.09.327 0 .37-13.21 57.27-13.62 58.648-.23.8-1.07.895-7.87.895s-7.63-.095-7.87-.896c-.14-.493-1.66-8.25-3.37-17.235-1.7-8.99-3.2-16.45-3.33-16.58-.4-.4-.642.69-3.973 17.82l-3.236 16.63-7.54.14c-5.76.11-7.59-.01-7.76-.51zm67.273-21.122V82.525h14.33v43.495H105.63v-21.75zm4.25-27.4c-.898-.276-2.433-1.254-3.41-2.176-3.388-3.195-2.848-7.712 1.244-10.42 1.77-1.172 2.74-1.434 5.29-1.44 11.8-.034 12.58 13.616.82 14.384-1.26.083-3.04-.074-3.93-.35zm21.443 68.17c6-6.28 9.774-12.395 12.213-19.79 1.143-3.464 1.192-4.344 1.487-26.863.328-25.024.288-24.638 3.2-30.446 1.7-3.39 5.826-8.64 9.525-12.13 4.095-3.86 8.245-6.49 12.867-8.15l3.327-1.19h31.72c34.91 0 34.39-.04 41.44 3.268 8.95 4.19 17.22 14.28 19.44 23.724 1.12 4.77 1.11 44.374-.02 48.76-2.34 9.09-8.826 17.2-18.26 22.84-7.17 4.284-2.636 4.006-65.248 4.006h-55.54l3.83-4.01zm112.465-40.77V82.013h-15.35v44.518h15.35v-22.26zm-60.892 12.794v-8.955h32.237V93.78h-32.238V79.966h36.332v-14.84h-53.89l.336 8.525c.186 4.69.337 18.39.337 30.45v21.92h16.886v-8.95zm57.448-39.686c5.51-1.53 7.78-8.267 4.06-12.032-4.33-4.382-11.79-4.258-15.59.26-2.59 3.073-2.45 6.603.35 9.41 2.64 2.64 6.93 3.545 11.2 2.362z" fill="#fff"/></svg>